<?xml version="1.0" standalone="no"?>
<!DOCTYPE svg PUBLIC "-//W3C//DTD SVG 20010904//EN"
 "http://www.w3.org/TR/2001/REC-SVG-20010904/DTD/svg10.dtd">
<svg version="1.0" xmlns="http://www.w3.org/2000/svg"
 width="1024.000000pt" height="1024.000000pt" viewBox="0 0 1024.000000 1024.000000"
 preserveAspectRatio="xMidYMid meet">
<metadata>
Created by potrace 1.14, written by Peter Selinger 2001-2017
</metadata>
<g transform="translate(0.000000,1024.000000) scale(0.100000,-0.100000)"
fill="#000000" stroke="none">
<path d="M2267 7148 c-54 -106 -134 -263 -178 -348 -217 -419 -265 -511 -306
-587 -25 -45 -42 -87 -39 -92 6 -8 462 -9 470 0 2 2 56 108 121 234 64 127
132 257 150 290 47 87 165 314 266 512 82 162 86 172 66 176 -12 3 -119 6
-237 7 l-215 1 -98 -193z"/>
<path d="M3053 7283 c-17 -32 -54 -103 -83 -158 -83 -157 -130 -246 -160 -300
-15 -27 -62 -117 -105 -200 -134 -259 -188 -360 -198 -373 -8 -10 -7 -16 3
-22 7 -5 229 -6 492 -3 263 2 478 1 478 -4 0 -4 -7 -60 -15 -123 -8 -63 -17
-133 -20 -155 -3 -22 -7 -56 -10 -75 -3 -19 -7 -53 -9 -75 -8 -60 -27 -207
-31 -235 -2 -14 -6 -47 -9 -75 -3 -27 -24 -189 -46 -360 -50 -383 -50 -384
-55 -415 -2 -14 -7 -47 -10 -75 -3 -27 -13 -102 -21 -165 -8 -63 -17 -131 -20
-150 -2 -19 -7 -51 -9 -70 -3 -19 -7 -55 -10 -80 -5 -47 -62 -500 -70 -560 -2
-19 -11 -84 -19 -145 -8 -60 -18 -132 -21 -160 -4 -27 -11 -79 -16 -115 -5
-36 -12 -83 -15 -105 -3 -22 -14 -100 -25 -174 -10 -74 -18 -136 -16 -137 2
-2 14 29 26 69 58 181 138 345 263 537 227 349 663 722 1100 941 59 30 110 61
112 69 3 8 7 42 11 75 7 69 83 627 90 665 2 14 7 45 10 70 7 58 26 190 31 213
2 10 8 51 13 90 6 40 13 90 16 112 3 22 8 54 10 70 3 17 7 48 10 70 16 124 56
413 59 430 3 11 5 25 5 31 1 9 320 11 1269 7 l1267 -5 58 -31 c33 -17 70 -45
83 -62 56 -74 68 -180 32 -290 -51 -157 -162 -249 -349 -291 -13 -3 -258 -7
-544 -10 -286 -2 -672 -6 -857 -7 -186 -2 -340 -6 -343 -9 -5 -4 -35 -207 -50
-338 -4 -30 -18 -140 -31 -245 -13 -104 -27 -210 -30 -235 -3 -25 -7 -56 -10
-70 -2 -14 -7 -58 -10 -99 l-7 -73 1129 6 c1078 5 1133 6 1229 26 308 62 560
196 780 416 112 113 163 176 226 279 125 205 206 439 237 682 13 104 6 362
-12 457 -65 336 -231 596 -488 762 -214 138 -490 226 -748 239 -63 3 -1110 7
-2325 10 l-2211 5 -31 -57z"/>
<path d="M4332 4040 c-282 -177 -524 -381 -699 -590 -222 -266 -378 -565 -458
-879 -41 -164 -111 -607 -98 -621 6 -6 1035 -9 1089 -3 l41 5 17 126 c9 70 19
141 21 157 3 17 21 152 40 300 19 149 37 286 40 305 8 57 56 420 65 490 5 36
11 79 14 95 2 17 8 54 11 84 4 30 8 61 10 70 1 9 6 43 9 76 4 33 11 87 16 120
5 33 12 89 16 125 3 36 8 67 9 70 2 3 7 37 10 75 4 39 9 73 12 78 14 23 -38
-3 -165 -83z"/>
<path d="M9600 80 l0 -80 320 0 320 0 0 80 0 80 -320 0 -320 0 0 -80z"/>
</g>
</svg>
